
<svg version="1.1" xmlns="http://www.w3.org/2000/svg" width="1024" height="1024" viewBox="0 0 1024 1024" preserveAspectRatio="xMidYMid meet">
<path d="M0 0 C0.33 0.66 0.66 1.32 1 2 C2.02508163 1.98525131 3.05016327 1.97050262 4.10630798 1.95530701 C13.74500529 1.81728405 23.38376262 1.68454342 33.02260494 1.5570364 C37.9785721 1.49130511 42.93449871 1.42368266 47.89038086 1.35180664 C52.66893472 1.28257089 57.44753119 1.21821336 62.2261982 1.15730476 C64.05355802 1.13314298 65.88089507 1.10719354 67.70820427 1.07946587 C70.25847686 1.04106691 72.80875486 1.00890239 75.35913086 0.97827148 C76.12229614 0.96532547 76.88546143 0.95237946 77.67175293 0.93904114 C79.44785944 0.92095602 81.2243764 0.95480852 83 1 C83.33 1.33 83.66 1.66 84 2 C84.1177219 4.55466353 84.17007634 7.08304937 84.18081665 9.63900757 C84.19162343 10.85371308 84.19162343 10.85371308 84.20264852 12.09295809 C84.22551242 14.82807117 84.24098643 17.56317503 84.25634766 20.29833984 C84.27078842 22.25106026 84.28554594 24.20377835 84.30059814 26.15649414 C84.43111272 44.01815102 84.49678384 61.88044312 84.54844093 79.74248314 C84.58732115 92.94679029 84.65560224 106.1502423 84.76298869 119.35417402 C84.83592575 128.6358041 84.87428976 137.91720088 84.88746679 147.19910586 C84.89632205 152.74264402 84.92049361 158.2851265 84.98213577 163.82835007 C85.03954408 169.05061578 85.05400905 174.27128601 85.03626251 179.49382019 C85.03713821 181.40499127 85.05329377 183.31622951 85.08630753 185.22711563 C85.32178353 199.61009151 85.32178353 199.61009151 82.06458664 205.49940872 C79.85289018 208.23964627 77.58201132 210.61245628 75 213 C73.68227735 214.43580874 72.37308498 215.87956585 71.078125 217.3359375 C69.80651178 218.68647506 68.5304217 220.03281068 67.25 221.375 C66.57114746 222.09034912 65.89229492 222.80569824 65.19287109 223.54272461 C60.70730577 228.25188746 56.19182537 232.93206621 51.625 237.5625 C50.81337402 238.39370361 50.81337402 238.39370361 49.98535156 239.24169922 C48.69564983 240.5343226 47.3525634 241.77330607 46 243 C45.34 243 44.68 243 44 243 C44 243.66 44 244.32 44 245 C42.47162731 246.39599396 40.87349901 247.71587649 39.25 249 C38.239375 249.80695313 37.22875 250.61390625 36.1875 251.4453125 C35.65769531 251.8671582 35.12789063 252.28900391 34.58203125 252.72363281 C32.09853191 254.72729555 29.6805805 256.8076856 27.25 258.875 C18.05303698 266.53913585 8.38249998 273.55682857 -1.625 280.125 C-2.1926709 280.50342041 -2.7603418 280.88184082 -3.34521484 281.27172852 C-9.281122 285.0871612 -9.281122 285.0871612 -13 285 C-15.38307798 283.39588679 -17.28957185 281.87159986 -19.375 279.9375 C-19.97715332 279.40036377 -20.57930664 278.86322754 -21.19970703 278.30981445 C-23.15075474 276.55819712 -25.07769529 274.78309018 -27 273 C-27.65484375 272.39478516 -28.3096875 271.78957031 -28.984375 271.16601562 C-32.22978421 268.16017894 -35.45984465 265.13866015 -38.6796875 262.10546875 C-41.07789042 259.85158364 -43.50346028 257.64529496 -46 255.5 C-49.89374598 252.15035826 -53.62783692 248.63644032 -57.375 245.125 C-62.42152609 240.39624803 -67.49402317 235.7048374 -72.65234375 231.09765625 C-74.33810738 229.59140822 -76.0170051 228.07746272 -77.69140625 226.55859375 C-78.57699219 225.75550781 -79.46257812 224.95242188 -80.375 224.125 C-81.16648437 223.40570312 -81.95796875 222.68640625 -82.7734375 221.9453125 C-84.95173165 219.97783366 -84.95173165 219.97783366 -87.2890625 218.3671875 C-87.85367188 217.91601562 -88.41828125 217.46484375 -89 217 C-89 216.34 -89 215.68 -89 215 C-89.57234375 214.75636719 -90.1446875 214.51273438 -90.734375 214.26171875 C-93.40433538 212.77482702 -95.13829007 211.01916092 -97.25 208.8125 C-99.96516752 206.03582383 -102.67456004 203.33776739 -105.625 200.8125 C-109.64781852 197.36092171 -113.50932819 193.75008372 -117.375 190.125 C-124.49474656 183.45452369 -131.61793609 176.79844751 -139.125 170.5625 C-140.07375 169.716875 -141.0225 168.87125 -142 168 C-142 167.34 -142 166.68 -142 166 C-142.58265625 165.74605469 -143.1653125 165.49210938 -143.765625 165.23046875 C-146.24188033 163.86679667 -147.80520626 162.35774797 -149.75 160.3125 C-152.3499799 157.64069745 -154.97229841 155.10196296 -157.8125 152.6875 C-161.20197756 149.77747702 -164.36425093 146.67816033 -167.5 143.5 C-171.83072464 139.11656125 -176.29511905 134.97759973 -181 131 C-183.31 129.02 -185.62 127.04 -188 125 C-188.33 196.28 -188.66 267.56 -189 341 C-231.19052745 350.37567277 -231.19052745 350.37567277 -246.29492188 353.44873047 C-249.1195905 354.02437142 -251.94259079 354.60780739 -254.765625 355.19140625 C-256.59365802 355.56555387 -258.42177911 355.9392715 -260.25 356.3125 C-261.07886719 356.48426758 -261.90773438 356.65603516 -262.76171875 356.83300781 C-266.26789758 357.54104308 -269.40780855 358 -273 358 C-273.0228644 312.79212113 -273.04049722 267.58424288 -273.05106533 222.37635938 C-273.05231611 217.0450957 -273.05361042 211.71383202 -273.05493164 206.38256836 C-273.05519395 205.32116243 -273.05545626 204.25975649 -273.05572652 203.16618674 C-273.06008365 185.95620038 -273.06797143 168.74621734 -273.0771528 151.53623296 C-273.08648815 133.8910847 -273.09205536 116.2459382 -273.09408849 98.60078758 C-273.09546397 87.70353261 -273.09981587 76.80628704 -273.10791647 65.90903496 C-273.11318247 58.44709742 -273.11480463 50.98516476 -273.11350138 43.52322549 C-273.11285777 39.21130279 -273.11387807 34.89939655 -273.11920547 30.58747673 C-273.12403915 26.64663164 -273.12433886 22.70581423 -273.12089889 18.76496791 C-273.12047317 17.33292673 -273.12176917 15.90088389 -273.12488318 14.46884603 C-273.12884677 12.53497278 -273.12615654 10.6010892 -273.12304783 8.66721439 C-273.12342755 7.58918838 -273.12380727 6.51116236 -273.1241985 5.40046889 C-273.08321299 4.60831415 -273.04222749 3.81615942 -273 3 C-272.67 2.67 -272.34 2.34 -272 2 C-240.80752606 -0.24088743 -209.06345138 4.83980961 -182 21 C-169.97791008 28.72242482 -159.23564999 37.73969576 -148.78515625 47.4296875 C-144.5251661 51.36106691 -140.16611998 55.17373677 -135.734375 58.91015625 C-134.99703125 59.53792969 -134.2596875 60.16570312 -133.5 60.8125 C-132.49453125 61.65748047 -132.49453125 61.65748047 -131.46875 62.51953125 C-130.9840625 63.00808594 -130.499375 63.49664062 -130 64 C-130 64.66 -130 65.32 -130 66 C-129.46890625 66.20238281 -128.9378125 66.40476562 -128.390625 66.61328125 C-124.95783421 68.60452428 -122.49100784 71.3446492 -119.75 74.1875 C-115.55614124 78.46568097 -111.32695987 82.5800299 -106.7578125 86.4609375 C-104.34074826 88.57721152 -102.12093907 90.86714128 -99.87207031 93.15917969 C-98.07236314 94.9288448 -96.21889416 96.58222599 -94.3046875 98.2265625 C-89.96818722 101.9968255 -85.79096207 105.91824147 -81.625 109.875 C-76.16984543 115.03683483 -70.67198616 120.12751401 -65.0625 125.12109375 C-62.51846204 127.43867379 -60.11325367 129.8729472 -57.703125 132.328125 C-55.90537755 134.09288626 -54.0364838 135.73443517 -52.125 137.375 C-49.1153247 139.96634205 -46.28911384 142.67254783 -43.5 145.5 C-40.11758601 148.9288279 -36.61929558 152.12048518 -32.96484375 155.25390625 C-30.18575486 157.7235936 -27.61139504 160.37903322 -25.00390625 163.02734375 C-22.42013007 165.57082713 -19.6904527 167.91563848 -16.94140625 170.27734375 C-14.40447664 172.52842214 -12.05109983 174.93646615 -9.67578125 177.35546875 C-7.244864 179.74105421 -4.65231288 181.86521159 -2 184 C-1.27556159 178.79469236 -0.87330051 173.78800951 -0.86628723 168.52163696 C-0.86402167 167.81384169 -0.86175612 167.10604642 -0.85942191 166.3768028 C-0.85314326 164.02934234 -0.85390725 161.68194053 -0.85473633 159.33447266 C-0.85174125 157.6419772 -0.84833792 155.94948242 -0.84455872 154.25698853 C-0.83575621 149.67895791 -0.83338236 145.100946 -0.83274293 140.52290773 C-0.83203102 137.66312116 -0.82989416 134.80333932 -0.82724571 131.94355392 C-0.81800916 121.96903939 -0.81390926 111.9945382 -0.81469727 102.02001953 C-0.81529964 92.71541844 -0.80471229 83.41087503 -0.7889536 74.10628855 C-0.77590242 66.11635045 -0.77051225 58.12643128 -0.77115268 50.1364826 C-0.77140811 45.3645133 -0.76853124 40.59259544 -0.75797462 35.82063675 C-0.74833282 31.34069748 -0.7481873 26.86085931 -0.75549126 22.3809166 C-0.75654156 20.73371484 -0.75414799 19.0865069 -0.7481308 17.4393158 C-0.7404714 15.19824331 -0.74501472 12.95752543 -0.75276184 10.71646118 C-0.75221707 9.46030817 -0.75167231 8.20415516 -0.75111103 6.9099369 C-0.87431107 5.46951814 -0.87431107 5.46951814 -1 4 C-1.66 3.34 -2.32 2.68 -3 2 C-2.01 2 -1.02 2 0 2 C0 1.34 0 0.68 0 0 Z " fill="#042658" transform="translate(470,296)" />
<path d="M0 0 C0 0.66 0 1.32 0 2 C-0.53141602 2.15968262 -1.06283203 2.31936523 -1.61035156 2.48388672 C-40.01713694 14.20330196 -72.94394435 36.65216831 -98.75 67.4375 C-100.18749704 69.2755644 -101.6010982 71.13239399 -103 73 C-103.79615723 74.05405029 -103.79615723 74.05405029 -104.60839844 75.12939453 C-113.79787532 87.31085137 -113.79787532 87.31085137 -122.1875 100.046875 C-123.63899943 102.41181803 -125.11946275 104.74772298 -126.625 107.078125 C-140.80826167 129.10664333 -153.02849497 152.26943457 -165.40234375 175.34375 C-220.44684635 277.93693651 -220.44684635 277.93693651 -253 306 C-253.66 306 -254.32 306 -255 306 C-255 306.66 -255 307.32 -255 308 C-288.07649767 339.3214182 -333.03872984 354.93535672 -377.1640625 361.8984375 C-437.72340833 370.77761229 -498.22768302 364.35148423 -558 353 C-558 352.34 -558 351.68 -558 351 C-557.15856445 350.9906543 -556.31712891 350.98130859 -555.45019531 350.97167969 C-483.38341931 349.98073723 -409.65457563 335.869638 -350 293 C-336.02567385 282.72548288 -322.78937826 271.7139951 -310 260 C-309.48405273 259.52916992 -308.96810547 259.05833984 -308.43652344 258.57324219 C-299.8928742 250.77208272 -291.45724294 242.97410997 -283.90625 234.1875 C-281.69054352 231.64488601 -279.40901408 229.16889802 -277.125 226.6875 C-272.20439629 221.28521069 -267.57017234 215.69971087 -263 210 C-262.06412788 208.84478807 -261.12791311 207.68985367 -260.19140625 206.53515625 C-253.37743873 198.10644079 -246.81052028 189.51462352 -240.34912109 180.81347656 C-238.45193713 178.26329877 -236.53773393 175.72602674 -234.625 173.1875 C-231.9679102 169.64952717 -229.33360649 166.09665271 -226.71875 162.52734375 C-220.47107264 154.00145557 -214.16342809 145.55092409 -207.58984375 137.2734375 C-204.95950638 133.96101414 -202.38295748 130.60898065 -199.8125 127.25 C-195.613844 121.77399027 -191.34194679 116.36307657 -187 111 C-186.32710937 110.16339844 -185.65421875 109.32679688 -184.9609375 108.46484375 C-148.93228459 63.98583406 -106.65257959 23.5994971 -50.3203125 7.3125 C-10.7344275 -3.49267055 -10.7344275 -3.49267055 0 0 Z " fill="#0258BD" transform="translate(832,296)" />
<path d="M0 0 C0.17316555 41.49638804 0.33582558 82.9928054 0.48431293 124.48928946 C0.50183551 129.38364767 0.51944545 134.27800557 0.53710938 139.17236328 C0.54062461 140.14677908 0.54413985 141.12119487 0.5477616 142.12513842 C0.60495614 157.92153631 0.66923429 173.71789789 0.736111 189.51425742 C0.80452941 205.71184119 0.86538025 221.90944051 0.91914403 238.10707963 C0.95258377 248.10918455 0.99199024 258.11122995 1.03892837 268.11328079 C1.07051166 274.96362057 1.09477229 281.81396139 1.11317255 288.66434918 C1.12402233 292.62201167 1.13819814 296.57959173 1.16103554 300.53720474 C1.18184407 304.15551529 1.1935236 307.77373253 1.19772999 311.3920994 C1.20241931 313.33122821 1.21706716 315.2703249 1.2319895 317.20940197 C1.2314908 318.34897102 1.2309921 319.48854007 1.23047829 320.66264153 C1.23427549 321.65219271 1.23807269 322.64174389 1.24198496 323.66128147 C1.16212993 324.43305858 1.08227489 325.2048357 1 326 C0.34 326.66 -0.32 327.32 -1 328 C-3.58456853 328.19311947 -6.06151373 328.26232507 -8.64672852 328.24291992 C-9.82981598 328.24576744 -9.82981598 328.24576744 -11.0368042 328.24867249 C-13.65093845 328.25238545 -16.26479658 328.2416696 -18.87890625 328.23046875 C-20.68969185 328.22927723 -22.50047807 328.22882373 -24.31126404 328.2290802 C-28.10850893 328.22751449 -31.90565965 328.21921749 -35.70288086 328.20581055 C-40.58135543 328.18880848 -45.45972654 328.18499649 -50.33822727 328.18575573 C-54.07758073 328.18548442 -57.81691136 328.18000973 -61.55625725 328.17275429 C-63.35567998 328.16956217 -65.15510531 328.16759895 -66.95453072 328.16686058 C-69.46395442 328.16470342 -71.97326617 328.15597319 -74.48266602 328.14526367 C-75.6086747 328.14594345 -75.6086747 328.14594345 -76.75743103 328.14663696 C-78.50560309 328.13567286 -80.25333515 328.07340068 -82 328 C-82.33 327.67 -82.66 327.34 -83 327 C-83.10918686 324.87405108 -83.14692115 322.74442836 -83.15821838 320.6157074 C-83.16562535 319.60374655 -83.16562535 319.60374655 -83.17318195 318.57134205 C-83.18862929 316.29422739 -83.19693701 314.01714107 -83.20532227 311.73999023 C-83.21489512 310.11424507 -83.22490484 308.48850243 -83.23532104 306.86276245 C-83.26244048 302.43529298 -83.2834118 298.00781278 -83.30332303 293.58030581 C-83.32513933 288.95847014 -83.35254925 284.33666781 -83.37937927 279.71485901 C-83.42936526 270.95654182 -83.4742821 262.19820617 -83.51740164 253.43985277 C-83.56672365 243.47143619 -83.62166039 233.50305306 -83.67708123 223.5346688 C-83.7909919 203.02314368 -83.89781105 182.51158664 -84 162 C-85.92475405 163.91119547 -87.84764936 165.82420113 -89.76953125 167.73828125 C-90.58170105 168.54416687 -90.58170105 168.54416687 -91.41027832 169.36633301 C-94.27665018 172.22398255 -97.05645577 175.10782741 -99.6875 178.1875 C-104.63919672 183.98050442 -110.01949558 189.36080328 -115.8125 194.3125 C-119.38902076 197.37502975 -122.69362644 200.65303538 -126 204 C-129.88444269 207.92724813 -133.81104084 211.71705642 -138.01953125 215.30078125 C-140.32669952 217.28030432 -142.56646782 219.3264212 -144.8125 221.375 C-149.53737824 225.63384321 -154.40717544 229.6766977 -159.35888672 233.66796875 C-161.23958731 235.1944642 -163.10622088 236.73734815 -164.97265625 238.28125 C-166.37756604 239.43754633 -167.78251383 240.59379648 -169.1875 241.75 C-169.84057129 242.29301758 -170.49364258 242.83603516 -171.16650391 243.39550781 C-175.56294372 246.99813061 -180.11026868 250.10322057 -185 253 C-183.61901259 250.14354715 -182.09433536 247.44692354 -180.41796875 244.75390625 C-179.90508301 243.92802002 -179.39219727 243.10213379 -178.86376953 242.2512207 C-178.31060059 241.36394287 -177.75743164 240.47666504 -177.1875 239.5625 C-176.31907471 238.16294067 -176.31907471 238.16294067 -175.43310547 236.73510742 C-172.55836236 232.10323107 -169.67400293 227.47757444 -166.77734375 222.859375 C-160.67752136 213.10948084 -154.75896514 203.26691991 -149 193.3125 C-148.37689941 192.23782471 -147.75379883 191.16314941 -147.11181641 190.0559082 C-143.86754432 184.41210733 -140.80752195 178.74761027 -138.04296875 172.85229492 C-137 171 -137 171 -135 170 C-134.2950642 168.34915545 -133.63477796 166.67907092 -133 165 C-132.12907945 163.2736629 -131.23142493 161.56064493 -130.3125 159.859375 C-129.78358154 158.87952637 -129.25466309 157.89967773 -128.7097168 156.89013672 C-128.14551025 155.8538916 -127.58130371 154.81764648 -127 153.75 C-126.41839111 152.6789502 -125.83678223 151.60790039 -125.23754883 150.50439453 C-120.69527894 142.18219375 -115.95732074 133.99661829 -111.09814453 125.85693359 C-109.40202975 122.988848 -107.76541896 120.08770682 -106.125 117.1875 C-91.43560208 91.4218222 -75.61709241 66.3337912 -56 44 C-55.35417969 43.24332031 -54.70835937 42.48664063 -54.04296875 41.70703125 C-46.75459837 33.20119042 -38.78092325 25.94627568 -30 19 C-28.98808594 18.18273437 -27.97617187 17.36546875 -26.93359375 16.5234375 C-21.12792468 11.89110204 -15.17813467 7.70846542 -8.8125 3.875 C-7.84038574 3.28912109 -7.84038574 3.28912109 -6.84863281 2.69140625 C-2.26590199 0 -2.26590199 0 0 0 Z " fill="#04275A" transform="translate(825,326)" />
<path d="M0 0 C0.33 0.99 0.66 1.98 1 3 C0.15820312 5.11523438 0.15820312 5.11523438 -1.21875 7.59375 C-1.98699097 8.99427612 -1.98699097 8.99427612 -2.77075195 10.4230957 C-3.34140381 11.43847412 -3.91205566 12.45385254 -4.5 13.5 C-5.0880542 14.56371826 -5.6761084 15.62743652 -6.28198242 16.72338867 C-7.53965549 18.99554384 -8.80176478 21.26524809 -10.06787109 23.53271484 C-11.94168163 26.89534527 -13.79593411 30.26798655 -15.64453125 33.64453125 C-58.48857585 111.69704815 -58.48857585 111.69704815 -89 138 C-89.66 138 -90.32 138 -91 138 C-91 138.66 -91 139.32 -91 140 C-124.07649767 171.3214182 -169.03872984 186.93535672 -213.1640625 193.8984375 C-273.72340833 202.77761229 -334.22768302 196.35148423 -394 185 C-394 184.34 -394 183.68 -394 183 C-393.15856445 182.9906543 -392.31712891 182.98130859 -391.45019531 182.97167969 C-319.38341931 181.98073723 -245.65457563 167.869638 -186 125 C-172.02567385 114.72548288 -158.78937826 103.7139951 -146 92 C-145.48405273 91.52916992 -144.96810547 91.05833984 -144.43652344 90.57324219 C-135.8928742 82.77208272 -127.45724294 74.97410997 -119.90625 66.1875 C-117.69054352 63.64488601 -115.40901408 61.16889802 -113.125 58.6875 C-108.20445397 53.28527401 -103.56920374 47.70041438 -99 42 C-98.028876 40.7979911 -97.057509 39.59617848 -96.0859375 38.39453125 C-95.05672726 37.11764222 -94.02808841 35.84029244 -93 34.5625 C-92.49235107 33.93174561 -91.98470215 33.30099121 -91.46166992 32.65112305 C-89.02376794 29.60247318 -86.63376195 26.53378151 -84.33984375 23.375 C-83.93185547 22.81482178 -83.52386719 22.25464355 -83.10351562 21.67749023 C-82.00619357 20.15764404 -80.92254391 18.62795312 -79.83984375 17.09765625 C-79.23269531 16.40542969 -78.62554688 15.71320313 -78 15 C-77.01 15 -76.02 15 -75 15 C-82.60070637 25.29861476 -90.42387648 35.36159101 -98.56152344 45.24121094 C-99.80854299 46.76591034 -101.03509799 48.30730369 -102.2578125 49.8515625 C-107.6226477 56.60350337 -113.46110894 62.8475913 -119.41723633 69.07592773 C-122.79031 72.60890158 -125.95521376 76.17695001 -129 80 C-130.15616475 81.07634045 -131.3440492 82.1197123 -132.5625 83.125 C-136.04287288 86.09336272 -139.29156714 89.24351521 -142.5 92.5 C-146.83531086 96.88187942 -151.27023718 101.04649596 -156 105 C-156.73734375 105.62648438 -157.4746875 106.25296875 -158.234375 106.8984375 C-172.9732912 119.21138302 -188.351486 130.41768787 -205 140 C-205.71736328 140.41507813 -206.43472656 140.83015625 -207.17382812 141.2578125 C-218.85543073 147.99353259 -230.64179022 153.99039673 -243.125 159.125 C-244.67380859 159.76888672 -244.67380859 159.76888672 -246.25390625 160.42578125 C-251.80119299 162.72242863 -257.36755841 164.92165365 -263 167 C-263.88945312 167.350625 -264.77890625 167.70125 -265.6953125 168.0625 C-272.10254111 170.53474255 -278.48756128 172.07838771 -285.2265625 173.38671875 C-287.89539432 173.71614228 -287.89539432 173.71614228 -289 175 C-290.72214591 175.34912328 -292.45329111 175.65431609 -294.1875 175.9375 C-297.35329605 176.48009133 -300.15163445 177.05351804 -303.1875 178.125 C-305.81512961 178.94248477 -307.4286575 179.06926384 -310.125 179 C-313.84480472 179 -314.92507784 179.30349122 -318 181 C-319.66621616 181.03874921 -321.33394172 181.0450286 -323 181 C-323.33 181.33 -323.66 181.66 -324 182 C-326.33333333 182 -328.66666667 182 -331 182 C-331.99 182.33 -332.98 182.66 -334 183 C-335.8701652 183.19296341 -337.74500996 183.34211491 -339.62109375 183.46484375 C-340.72130859 183.54283203 -341.82152344 183.62082031 -342.95507812 183.70117188 C-345.27254332 183.85844237 -347.59025649 184.01210157 -349.90820312 184.16210938 C-351.56045898 184.28102539 -351.56045898 184.28102539 -353.24609375 184.40234375 C-354.75707642 184.50276978 -354.75707642 184.50276978 -356.29858398 184.60522461 C-358.94636795 184.9921624 -360.70822375 185.65508651 -363 187 C-363 186.34 -363 185.68 -363 185 C-363.99 185.99 -364.98 186.98 -366 188 C-365.071875 187.979375 -364.14375 187.95875 -363.1875 187.9375 C-358.0995312 187.92703093 -353.05713755 188.4878848 -348 189 C-348 189.66 -348 190.32 -348 191 C-347.39341553 190.98839844 -346.78683105 190.97679687 -346.16186523 190.96484375 C-340.05133924 190.89908235 -334.12827046 191.30064956 -328.0625 192 C-321.01618356 192.76442175 -314.09657012 193.29297767 -307 193 C-307 193.66 -307 194.32 -307 195 C-306.41992188 194.9278125 -305.83984375 194.855625 -305.2421875 194.78125 C-300.79912426 194.2533613 -296.48368422 193.88503374 -292 194 C-292 194.66 -292 195.32 -292 196 C-286.76709303 195.88191597 -281.53438249 195.75767964 -276.30175781 195.62768555 C-274.52087397 195.5843167 -272.73994802 195.54264306 -270.95898438 195.50268555 C-268.40221452 195.4450301 -265.84565702 195.3813223 -263.2890625 195.31640625 C-262.09055161 195.29133751 -262.09055161 195.29133751 -260.86782837 195.26576233 C-256.80193632 195.24607009 -256.80193632 195.24607009 -253 194 C-251.247811 193.96130292 -249.49428711 193.97697901 -247.7421875 194.01953125 C-240.80056865 194.07439343 -234.0185413 193.4558029 -227.125 192.6875 C-225.88919189 192.55214844 -224.65338379 192.41679688 -223.38012695 192.27734375 C-215.08050259 191.33013082 -207.11463127 189.98266809 -199 188 C-196.35587012 187.44584104 -193.71184953 186.90246643 -191.0625 186.375 C-189.87785156 186.13523437 -188.69320312 185.89546875 -187.47265625 185.6484375 C-183.99135658 184.99838604 -180.50908661 184.47504876 -177 184 C-176.67 183.34 -176.34 182.68 -176 182 C-174.97777344 181.87882813 -173.95554687 181.75765625 -172.90234375 181.6328125 C-159.35986023 179.43673409 -145.08613964 172.37629424 -133 166 C-132.2884375 165.2575 -132.2884375 165.2575 -131.5625 164.5 C-129.64473202 162.65894274 -127.5701185 161.98187209 -125.13671875 160.9921875 C-110.6745527 154.27666615 -98.38534977 142.95069155 -87 132 C-86.45166504 131.47889648 -85.90333008 130.95779297 -85.33837891 130.42089844 C-77.61147794 123.05481311 -70.72660877 115.34412856 -64.33837891 106.79150391 C-63.00134132 105.00179544 -61.64790017 103.22540269 -60.29296875 101.44921875 C-48.04252124 85.23235686 -37.93383089 67.69552069 -28 50 C-27.18782278 48.55971377 -26.37534219 47.11959855 -25.5625 45.6796875 C-23.73329979 42.43637483 -21.91061827 39.18945456 -20.08984375 35.94140625 C-18.94798323 33.90733931 -17.80255288 31.87531649 -16.65625 29.84375 C-12.8176693 23.03834253 -9.00998154 16.22018184 -5.28515625 9.3515625 C-3.56730803 6.20826575 -1.79199358 3.10152735 0 0 Z " fill="#0E3786" transform="translate(668,464)" />
<path d="M0 0 C4.4524159 -0.25419185 8.91619131 -0.18522973 13.375 -0.1875 C14.633125 -0.19974609 15.89125 -0.21199219 17.1875 -0.22460938 C18.39148438 -0.22654297 19.59546875 -0.22847656 20.8359375 -0.23046875 C21.94501465 -0.23457764 23.0540918 -0.23868652 24.19677734 -0.24291992 C27 0 27 0 30 2 C20.76 2 11.52 2 2 2 C2 117.83 2 233.66 2 353 C3.32 353.33 4.64 353.66 6 354 C3 356 3 356 -1 356 C-1.0228644 310.79212113 -1.04049722 265.58424288 -1.05106533 220.37635938 C-1.05231611 215.0450957 -1.05361042 209.71383202 -1.05493164 204.38256836 C-1.05519395 203.32116243 -1.05545626 202.25975649 -1.05572652 201.16618674 C-1.06008365 183.95620038 -1.06797143 166.74621734 -1.0771528 149.53623296 C-1.08648815 131.8910847 -1.09205536 114.2459382 -1.09408849 96.60078758 C-1.09546397 85.70353261 -1.09981587 74.80628704 -1.10791647 63.90903496 C-1.11318247 56.44709742 -1.11480463 48.98516476 -1.11350138 41.52322549 C-1.11285777 37.21130279 -1.11387807 32.89939655 -1.11920547 28.58747673 C-1.12403915 24.64663164 -1.12433886 20.70581423 -1.12089889 16.76496791 C-1.12047317 15.33292673 -1.12176917 13.90088389 -1.12488318 12.46884603 C-1.12884677 10.53497278 -1.12615654 8.6010892 -1.12304783 6.66721439 C-1.12342755 5.58918838 -1.12380727 4.51116236 -1.1241985 3.40046889 C-1.08321299 2.60831415 -1.04222749 1.81615942 -1 1 C-0.67 0.67 -0.34 0.34 0 0 Z " fill="#050F29" transform="translate(198,298)" />
<path d="M0 0 C0.33 0.66 0.66 1.32 1 2 C2.02508163 1.98525131 3.05016327 1.97050262 4.10630798 1.95530701 C13.74500529 1.81728405 23.38376262 1.68454342 33.02260494 1.5570364 C37.9785721 1.49130511 42.93449871 1.42368266 47.89038086 1.35180664 C52.66893472 1.28257089 57.44753119 1.21821336 62.2261982 1.15730476 C64.05355802 1.13314298 65.88089507 1.10719354 67.70820427 1.07946587 C70.25847686 1.04106691 72.80875486 1.00890239 75.35913086 0.97827148 C76.12229614 0.96532547 76.88546143 0.95237946 77.67175293 0.93904114 C79.44785944 0.92095602 81.2243764 0.95480852 83 1 C83.495 1.495 83.495 1.495 84 2 C84.09777783 4.57979267 84.12994888 7.13279328 84.12025452 9.71302795 C84.12110894 10.53059285 84.12196337 11.34815775 84.12284368 12.19049734 C84.12450099 14.95132011 84.11897304 17.71208315 84.11352539 20.47290039 C84.11324355 22.44346617 84.1134012 24.41403206 84.1139679 26.38459778 C84.11425598 31.75214509 84.1083575 37.11967027 84.10139394 42.48721242 C84.0951622 48.08997947 84.09455674 53.69274698 84.09336853 59.29551697 C84.09025468 69.91319558 84.08204057 80.53086396 84.07201904 91.14853805 C84.06085957 103.23297324 84.05534787 115.31740891 84.05032361 127.40184796 C84.039858 152.26790433 84.02225753 177.13395159 84 202 C83.67 202 83.34 202 83 202 C82.67 136.66 82.34 71.32 82 4 C55.27 4 28.54 4 1 4 C1 15.88 1 27.76 1 40 C0.67 40 0.34 40 0 40 C-0.01981934 38.91992676 -0.03963867 37.83985352 -0.06005859 36.72705078 C-0.13601623 32.72746087 -0.22474816 28.72823948 -0.31738281 24.72900391 C-0.35571341 22.99665593 -0.39055906 21.26422726 -0.421875 19.53173828 C-0.46743765 17.04430251 -0.52544503 14.55742434 -0.5859375 12.0703125 C-0.59748871 11.29317902 -0.60903992 10.51604553 -0.62094116 9.71536255 C-0.67356831 7.80678169 -0.82832478 5.90157254 -1 4 C-1.66 3.34 -2.32 2.68 -3 2 C-2.01 2 -1.02 2 0 2 C0 1.34 0 0.68 0 0 Z " fill="#162F5C" transform="translate(470,296)" />
<path d="M0 0 C0.33 0 0.66 0 1 0 C1 60.72 1 121.44 1 184 C0.34 184 -0.32 184 -1 184 C-1.86737058 175.36420278 -2.13891424 166.82905438 -2.11352539 158.15332031 C-2.11324252 156.81166587 -2.11340319 155.47001128 -2.1139679 154.12835693 C-2.11425198 150.52586272 -2.1084187 146.92340256 -2.10139394 143.32091618 C-2.09509511 139.54131816 -2.09455148 135.76171916 -2.09336853 131.9821167 C-2.09027432 124.84264989 -2.08208695 117.7031986 -2.07201904 110.56373858 C-2.06079825 102.42818798 -2.05533249 94.2926366 -2.05032361 86.15708017 C-2.03990251 69.4380444 -2.02234046 52.71902419 -2 36 C-1.34 36 -0.68 36 0 36 C0 24.12 0 12.24 0 0 Z " fill="#021032" transform="translate(471,300)" />
<path d="M0 0 C0.495 1.485 0.495 1.485 1 3 C0.15820312 5.11523438 0.15820312 5.11523438 -1.21875 7.59375 C-1.73091064 8.52743408 -2.24307129 9.46111816 -2.77075195 10.4230957 C-3.62672974 11.94616333 -3.62672974 11.94616333 -4.5 13.5 C-5.0880542 14.56371826 -5.6761084 15.62743652 -6.28198242 16.72338867 C-7.53965549 18.99554384 -8.80176478 21.26524809 -10.06787109 23.53271484 C-11.94168163 26.89534527 -13.79593411 30.26798655 -15.64453125 33.64453125 C-36.23807184 71.16147648 -57.86826254 108.13320898 -89 138 C-89.33 137.01 -89.66 136.02 -90 135 C-89.35937622 134.38294189 -89.35937622 134.38294189 -88.70581055 133.75341797 C-79.88732696 125.21543104 -71.58763572 116.6235867 -64.29003906 106.74316406 C-62.97762047 104.96975968 -61.64298645 103.21486919 -60.3046875 101.4609375 C-48.04406542 85.24548785 -37.93609367 67.69955147 -28 50 C-27.18782278 48.55971377 -26.37534219 47.11959855 -25.5625 45.6796875 C-23.73329979 42.43637483 -21.91061827 39.18945456 -20.08984375 35.94140625 C-18.94798323 33.90733931 -17.80255288 31.87531649 -16.65625 29.84375 C-12.8176693 23.03834253 -9.00998154 16.22018184 -5.28515625 9.3515625 C-3.56730803 6.20826575 -1.79199358 3.10152735 0 0 Z " fill="#0F4193" transform="translate(668,464)" />
<path d="M0 0 C5.81151858 4.15122332 11.04116596 8.68057955 16.1875 13.625 C17.55434484 14.9314105 18.92279459 16.23614424 20.29296875 17.5390625 C20.9276709 18.14266602 21.56237305 18.74626953 22.21630859 19.36816406 C23.74261436 20.76452702 25.358466 22.06191198 26.98828125 23.3359375 C27.98408203 24.15964844 27.98408203 24.15964844 29 25 C29 25.66 29 26.32 29 27 C29.58571777 27.26353271 30.17143555 27.52706543 30.77490234 27.79858398 C33.09450782 29.05102842 34.70204631 30.40316574 36.6015625 32.22265625 C37.25640625 32.84333984 37.91125 33.46402344 38.5859375 34.10351562 C39.25882812 34.74998047 39.93171875 35.39644531 40.625 36.0625 C41.96941814 37.34708135 43.31568547 38.62973102 44.6640625 39.91015625 C45.25654785 40.47871338 45.8490332 41.04727051 46.45947266 41.63305664 C47.97173979 43.09383963 47.97173979 43.09383963 50 44 C50 44.66 50 45.32 50 46 C50.59167969 46.27021973 51.18335938 46.54043945 51.79296875 46.81884766 C53.9814906 47.99009419 55.51221554 49.20288319 57.3125 50.8984375 C57.91320312 51.46046875 58.51390625 52.0225 59.1328125 52.6015625 C59.74898438 53.18679688 60.36515625 53.77203125 61 54.375 C61.92425781 55.24125 61.92425781 55.24125 62.8671875 56.125 C65.96238563 59.03422056 69.01841461 61.97369083 72 65 C69.07486986 64.64635732 67.34888955 64.28551839 65.04296875 62.3984375 C64.43066406 61.73070312 63.81835938 61.06296875 63.1875 60.375 C60.62721947 57.68122253 58.06998368 55.10881655 55.25 52.6875 C51.86057578 49.76809359 48.54295467 46.77734271 45.25 43.75 C44.73985352 43.28102295 44.22970703 42.8120459 43.70410156 42.32885742 C42.6573426 41.36595033 41.61079485 40.40281359 40.56445312 39.43945312 C38.04638284 37.12257697 35.52306612 34.81143279 33 32.5 C29.95033707 29.70614104 26.90209855 26.9107921 23.859375 24.109375 C14.17910283 15.10716471 14.17910283 15.10716471 4 6.6875 C3.34 6.130625 2.68 5.57375 2 5 C2 4.34 2 3.68 2 3 C1.34 3 0.68 3 0 3 C0 2.01 0 1.02 0 0 Z " fill="#0C1F46" transform="translate(379,508)" />
<path d="M0 0 C-1.33333333 0.66666667 -2.66666667 1.33333333 -4 2 C-4.9590625 2.556875 -4.9590625 2.556875 -5.9375 3.125 C-8.40770526 4.17296587 -10.34287482 4.07181419 -13 4 C-13.33 4.33 -13.66 4.66 -14 5 C-16.33333333 5 -18.66666667 5 -21 5 C-21.99 5.33 -22.98 5.66 -24 6 C-26.49899589 6.20976707 -28.98110031 6.37435439 -31.484375 6.5 C-32.58510345 6.5609082 -32.58510345 6.5609082 -33.70806885 6.62304688 C-36.05518557 6.75261514 -38.40254078 6.87680411 -40.75 7 C-43.08315138 7.12355953 -45.41620286 7.24839587 -47.74908447 7.37695312 C-49.1992396 7.45678036 -50.64955453 7.53377423 -52.10003662 7.60742188 C-56.45677253 7.84613996 -60.69468108 8.32707487 -65 9 C-65 9.33 -65 9.66 -65 10 C-71.64409958 10.21432579 -77.53205867 9.51233701 -84 8 C-84 7.34 -84 6.68 -84 6 C-83.15856445 5.9906543 -82.31712891 5.98130859 -81.45019531 5.97167969 C-64.28480829 5.73564983 -47.31123173 4.97512278 -30.25 3 C-29.47483032 2.91036987 -28.69966064 2.82073975 -27.90100098 2.72839355 C-19.27707585 1.72851241 -19.27707585 1.72851241 -10.69189453 0.44750977 C-7.07112463 -0.15441942 -3.66529776 -0.06319479 0 0 Z " fill="#113986" transform="translate(358,641)" />
<path d="M0 0 C0.66 0.33 1.32 0.66 2 1 C2 55.12 2 109.24 2 165 C1.67 165 1.34 165 1 165 C0.67 111.54 0.34 58.08 0 3 C-0.66 3.66 -1.32 4.32 -2 5 C-2.99 4.67 -3.98 4.34 -5 4 C-3.35 2.68 -1.7 1.36 0 0 Z " fill="#022052" transform="translate(743,483)" />
<path d="M0 0 C0.66 0.33 1.32 0.66 2 1 C-5.5956517 11.2917659 -13.41275205 21.34967913 -21.54394531 31.22363281 C-22.83961297 32.80432998 -24.12012633 34.39742145 -25.3984375 35.9921875 C-31.27213777 43.30780697 -37.57952443 50.16670197 -44 57 C-44.99 56.67 -45.98 56.34 -47 56 C-46.25556641 55.27296875 -46.25556641 55.27296875 -45.49609375 54.53125 C-40.76473314 49.86273479 -36.30937167 45.05770567 -32 40 C-31.19949219 39.07703125 -30.39898438 38.1540625 -29.57421875 37.203125 C-23.09390668 29.68777968 -17.03001228 21.90107392 -11.0390625 13.9921875 C-7.44800936 9.25577033 -3.75033151 4.61143481 0 0 Z " fill="#0C4194" transform="translate(591,478)" />
<path d="M0 0 C4.4524159 -0.25419185 8.91619131 -0.18522973 13.375 -0.1875 C14.633125 -0.19974609 15.89125 -0.21199219 17.1875 -0.22460938 C18.39148438 -0.22654297 19.59546875 -0.22847656 20.8359375 -0.23046875 C21.94501465 -0.23457764 23.0540918 -0.23868652 24.19677734 -0.24291992 C27 0 27 0 30 2 C20.43 2 10.86 2 1 2 C1 23.12 1 44.24 1 66 C0.67 66 0.34 66 0 66 C-0.81235823 57.73739613 -1.14816685 49.56962528 -1.1328125 41.26953125 C-1.13376923 40.11249191 -1.13472595 38.95545258 -1.13571167 37.76335144 C-1.13638674 35.34410548 -1.13457988 32.92485763 -1.13037109 30.50561523 C-1.12495899 26.78430205 -1.13036631 23.06310662 -1.13671875 19.34179688 C-1.1360589 16.98437473 -1.13477968 14.62695266 -1.1328125 12.26953125 C-1.13483673 11.15302689 -1.13686096 10.03652252 -1.13894653 8.88618469 C-1.13579437 7.86389267 -1.13264221 6.84160065 -1.12939453 5.78833008 C-1.12859894 4.88520584 -1.12780334 3.9820816 -1.12698364 3.05158997 C-1.08507904 2.37456528 -1.04317444 1.69754059 -1 1 C-0.67 0.67 -0.34 0.34 0 0 Z " fill="#101F40" transform="translate(198,298)" />
<path d="M0 0 C0.495 1.485 0.495 1.485 1 3 C0.15820312 5.11523438 0.15820312 5.11523438 -1.21875 7.59375 C-1.73155518 8.52848145 -2.24436035 9.46321289 -2.77270508 10.42626953 C-3.62771606 11.94776611 -3.62771606 11.94776611 -4.5 13.5 C-5.08225342 14.55429199 -5.66450684 15.60858398 -6.2644043 16.69482422 C-7.84056453 19.54449517 -9.42554781 22.38903677 -11.01409912 25.23181152 C-12.65996056 28.1836227 -14.29218209 31.14295352 -15.92578125 34.1015625 C-22.19801248 45.44977215 -28.50658942 56.77656509 -35 68 C-35.65893555 66.30419922 -35.65893555 66.30419922 -36 64 C-35.01879883 61.69189453 -35.01879883 61.69189453 -33.45703125 59.1328125 C-32.88339844 58.17528076 -32.30976562 57.21774902 -31.71875 56.23120117 C-30.77515625 54.69363159 -30.77515625 54.69363159 -29.8125 53.125 C-28.51428154 50.95861441 -27.21876467 48.79060788 -25.92578125 46.62109375 C-25.26787598 45.52007324 -24.6099707 44.41905273 -23.93212891 43.28466797 C-21.0078408 38.31330429 -18.24192905 33.26115172 -15.5 28.1875 C-15.03311768 27.32463379 -14.56623535 26.46176758 -14.08520508 25.57275391 C-13.18423667 23.904747 -12.28423051 22.23621992 -11.38525391 20.56713867 C-7.66307647 13.66923672 -3.92135421 6.7869592 0 0 Z " fill="#0D4294" transform="translate(668,464)" />
<path d="M0 0 C3.89827036 1.61116162 6.67087344 4.26522682 9.6875 7.125 C10.24421387 7.64562012 10.80092773 8.16624023 11.37451172 8.70263672 C13.25450157 10.46336006 15.12761272 12.23119554 17 14 C18.41519935 15.33350871 19.83056908 16.66683662 21.24609375 18 C23.43247403 20.05935036 25.61859965 22.1189612 27.80322266 24.18017578 C33.4731845 29.52384615 39.20447649 34.79279097 45 40 C44.67 40.99 44.34 41.98 44 43 C39.73141984 39.01967166 35.46449934 35.0375749 31.19921875 31.05371094 C29.74383333 29.69461878 28.28810919 28.33588925 26.83203125 26.97753906 C24.72020875 25.00708173 22.60994907 23.03496304 20.5 21.0625 C19.85482422 20.46107178 19.20964844 19.85964355 18.54492188 19.23999023 C14.81852835 15.75299919 11.17503096 12.20315799 7.60327148 8.55761719 C5.99270008 6.99290795 4.31521873 5.58967499 2.5625 4.1875 C1.716875 3.465625 0.87125 2.74375 0 2 C0 1.34 0 0.68 0 0 Z " fill="#0B1F48" transform="translate(391,410)" />
<path d="M0 0 C3.42280517 1.46582015 5.56480483 3.38062255 8.125 6.0625 C10.77905 8.91571933 10.77905 8.91571933 14 11 C14 11.66 14 12.32 14 13 C14.58007812 13.25136719 15.16015625 13.50273437 15.7578125 13.76171875 C18.27966022 15.1544465 19.89144079 16.72936452 21.875 18.8125 C25.09720225 22.12521355 28.39330023 25.11464018 32 28 C31.01 28.33 30.02 28.66 29 29 C28.59797363 28.62302979 28.19594727 28.24605957 27.78173828 27.85766602 C20.5979575 21.12581781 13.41368705 14.40351493 6.05078125 7.8671875 C3.96030539 5.963859 1.91380803 4.08229226 0 2 C0 1.34 0 0.68 0 0 Z " fill="#0B1D42" transform="translate(331,464)" />
<path d="M0 0 C13.2 0 26.4 0 40 0 C40 0.33 40 0.66 40 1 C29.605 1.99 29.605 1.99 19 3 C19 3.33 19 3.66 19 4 C12.35590042 4.21432579 6.46794133 3.51233701 0 2 C0 1.34 0 0.68 0 0 Z " fill="#163574" transform="translate(274,647)" />
<path d="M0 0 C0.33 0 0.66 0 1 0 C1.17001993 6.09720005 1.3302715 12.19455805 1.48217773 18.29223633 C1.53495036 20.3587097 1.59021245 22.42512128 1.64819336 24.49145508 C1.99894835 37.06068404 2.01563642 49.46181484 1 62 C0.67 62 0.34 62 0 62 C-0.99448536 41.25336658 -0.90750387 20.74706134 0 0 Z " fill="#02081F" transform="translate(470,338)" />
<path d="M0 0 C0 3.60405456 -0.97538217 5.15133204 -2.703125 8.296875 C-3.27160156 9.3384375 -3.84007812 10.38 -4.42578125 11.453125 C-5.32876953 13.08507812 -5.32876953 13.08507812 -6.25 14.75 C-7.12978516 16.35875 -7.12978516 16.35875 -8.02734375 18 C-10.96667821 23.36345973 -13.94279272 28.70285867 -17 34 C-17.63061523 32.26611328 -17.63061523 32.26611328 -18 30 C-17.19555664 27.92529297 -17.19555664 27.92529297 -15.91015625 25.7421875 C-15.45576172 24.95199219 -15.00136719 24.16179687 -14.53320312 23.34765625 C-14.04787109 22.53167969 -13.56253906 21.71570313 -13.0625 20.875 C-12.11235654 19.24945335 -11.1655659 17.62194082 -10.22265625 15.9921875 C-9.79734619 15.27401855 -9.37203613 14.55584961 -8.93383789 13.81591797 C-7.84755877 12.04389367 -7.84755877 12.04389367 -8 10 C-7.34 10 -6.68 10 -6 10 C-5.566875 8.88625 -5.566875 8.88625 -5.125 7.75 C-4.17211267 5.42071987 -3.24809449 3.18416536 -2 1 C-1.34 0.67 -0.68 0.34 0 0 Z " fill="#091F4C" transform="translate(696,486)" />
<path d="M0 0 C0 0.66 0 1.32 0 2 C-0.59425781 2.19110352 -1.18851563 2.38220703 -1.80078125 2.57910156 C-4.53602208 3.46284384 -7.26798124 4.356349 -10 5.25 C-10.93457031 5.55035156 -11.86914062 5.85070312 -12.83203125 6.16015625 C-17.24155937 7.60944172 -21.39693321 9.11383306 -25.5 11.296875 C-26.655 11.85890625 -27.81 12.4209375 -29 13 C-29.99 12.67 -30.98 12.34 -32 12 C-26.25 9 -26.25 9 -24 9 C-24 8.34 -24 7.68 -24 7 C-19.71 5.68 -15.42 4.36 -11 3 C-11.99 2.34 -12.98 1.68 -14 1 C-12.41913952 0.63495397 -10.83516093 0.28339494 -9.25 -0.0625 C-7.92742188 -0.35833984 -7.92742188 -0.35833984 -6.578125 -0.66015625 C-4.01320972 -0.99825872 -2.42908361 -0.81158635 0 0 Z " fill="#1362B3" transform="translate(832,296)" />
<path d="M0 0 C3.95677402 1.67401978 6.84464213 4.13149285 10 7 C10 7.66 10 8.32 10 9 C10.54140625 9.21398437 11.0828125 9.42796875 11.640625 9.6484375 C14.8392797 11.48077943 17.20964484 13.99796606 19.75 16.625 C20.25660156 17.140625 20.76320313 17.65625 21.28515625 18.1875 C22.52803902 19.45383339 23.76465276 20.7263144 25 22 C24.34 22.33 23.68 22.66 23 23 C22.49210937 22.55269531 21.98421875 22.10539062 21.4609375 21.64453125 C18.27633354 18.84756635 15.09466548 16.05729189 11.8125 13.375 C9.0485185 11.04097118 6.52352929 8.58993795 4 6 C3.236875 5.278125 2.47375 4.55625 1.6875 3.8125 C1.130625 3.214375 0.57375 2.61625 0 2 C0 1.34 0 0.68 0 0 Z " fill="#0B1B3F" transform="translate(305,440)" />
<path d="M0 0 C0.33 0 0.66 0 1 0 C1 13.53 1 27.06 1 41 C0.67 41 0.34 41 0 41 C0 38.36 0 35.72 0 33 C-0.66 32.67 -1.32 32.34 -2 32 C-2 27.05 -2 22.1 -2 17 C-1.34 17 -0.68 17 0 17 C0 11.39 0 5.78 0 0 Z " fill="#06183D" transform="translate(471,383)" />
<path d="M0 0 C2.64 0 5.28 0 8 0 C3.43369266 4.87072783 -1.74976539 8.89156398 -7 13 C-7 10 -7 10 -5.46875 7.51953125 C-4.8190625 6.62621094 -4.169375 5.73289062 -3.5 4.8125 C-2.8503125 3.91144531 -2.200625 3.01039063 -1.53125 2.08203125 C-1.0259375 1.39496094 -0.520625 0.70789063 0 0 Z " fill="#0B2758" transform="translate(648,566)" />
<path d="M0 0 C3.9468175 0.56253491 5.93859683 2.45475926 8.8125 5.125 C10.12734375 6.34316406 10.12734375 6.34316406 11.46875 7.5859375 C14.70313076 10.67057841 17.87568953 13.80432203 21 17 C21.97792486 17.9804069 22.95696483 18.95970375 23.9375 19.9375 C24.618125 20.618125 25.29875 21.29875 26 22 C22.67765096 21.41274131 20.98918537 20.38072114 18.57421875 18.05078125 C17.94193359 17.44943359 17.30964844 16.84808594 16.65820312 16.22851562 C16.00787109 15.59623047 15.35753906 14.96394531 14.6875 14.3125 C13.4010923 13.07801592 12.11333867 11.8449328 10.82421875 10.61328125 C10.19563965 10.01080566 9.56706055 9.40833008 8.91943359 8.78759766 C6.99891859 6.99899286 5.02643241 5.29615543 3.01953125 3.60546875 C2.02308594 2.74566406 1.02664063 1.88585937 0 1 C0 0.67 0 0.34 0 0 Z " fill="#0C2046" transform="translate(279,417)" />
<path d="M0 0 C1.04736328 0.09216797 2.09472656 0.18433594 3.17382812 0.27929688 C4.80674805 0.44075195 4.80674805 0.44075195 6.47265625 0.60546875 C7.55740234 0.70150391 8.64214844 0.79753906 9.75976562 0.89648438 C14.41762511 1.32304926 18.95788084 1.809117 23.53515625 2.79296875 C23.53515625 3.12296875 23.53515625 3.45296875 23.53515625 3.79296875 C12.33990055 4.04236801 1.60989915 3.46237818 -9.46484375 1.79296875 C-6.11539498 -0.2527935 -3.87275083 -0.35730834 0 0 Z " fill="#113681" transform="translate(331.46484375,655.20703125)" />
<path d="M0 0 C0.33 0.99 0.66 1.98 1 3 C0.25556641 3.89138672 0.25556641 3.89138672 -0.50390625 4.80078125 C-4.86023576 10.11599923 -8.70954236 15.52944433 -12.32421875 21.37109375 C-14.68246124 25.07062101 -17.29841029 28.54631938 -20 32 C-20.33 31.34 -20.66 30.68 -21 30 C-15.92661771 22.29277669 -10.80566408 14.6309808 -5.4375 7.125 C-4.79385498 6.22467041 -4.79385498 6.22467041 -4.13720703 5.30615234 C-1.14193656 1.14193656 -1.14193656 1.14193656 0 0 Z " fill="#0D4C9E" transform="translate(724,372)" />
<path d="M0 0 C0 0.66 0 1.32 0 2 C0.58007812 1.9278125 1.16015625 1.855625 1.7578125 1.78125 C6.20087574 1.2533613 10.51631578 0.88503374 15 1 C15 1.66 15 2.32 15 3 C9.17144343 4.34275621 3.54145213 3.89458473 -2.375 3.5625 C-3.39722656 3.51029297 -4.41945313 3.45808594 -5.47265625 3.40429688 C-7.98213196 3.27530513 -10.4911394 3.14037142 -13 3 C-13 2.67 -13 2.34 -13 2 C-11.58461283 1.66127487 -10.16762037 1.32925376 -8.75 1 C-7.56664062 0.7215625 -7.56664062 0.7215625 -6.359375 0.4375 C-4 0 -4 0 0 0 Z " fill="#0F3988" transform="translate(361,657)" />
<path d="M0 0 C0.33 0.99 0.66 1.98 1 3 C-0.0480957 5.51196289 -0.0480957 5.51196289 -1.67578125 8.47265625 C-2.25650391 9.53677734 -2.83722656 10.60089844 -3.43554688 11.69726562 C-4.36463867 13.36305664 -4.36463867 13.36305664 -5.3125 15.0625 C-5.92029297 16.17689453 -6.52808594 17.29128906 -7.15429688 18.43945312 C-11.69521774 26.69521774 -11.69521774 26.69521774 -14 29 C-13.45876996 24.65623095 -12.43490754 21.45642563 -10.3125 17.63671875 C-9.77882813 16.66798828 -9.24515625 15.69925781 -8.6953125 14.70117188 C-7.85613281 13.2094043 -7.85613281 13.2094043 -7 11.6875 C-6.44054687 10.67365234 -5.88109375 9.65980469 -5.3046875 8.61523438 C-1.18268327 1.18268327 -1.18268327 1.18268327 0 0 Z " fill="#0C479A" transform="translate(668,464)" />
<path d="M0 0 C0.33 0.99 0.66 1.98 1 3 C-3.95 7.95 -8.9 12.9 -14 18 C-14.99 17.67 -15.98 17.34 -17 17 C-11.39 11.39 -5.78 5.78 0 0 Z " fill="#091F4A" transform="translate(531,520)" />
<path d="M0 0 C2.4375 0.8125 2.4375 0.8125 5 2 C5.33 2.99 5.66 3.98 6 5 C4.5 6.5625 4.5 6.5625 2 8 C-0.77437543 7.96823234 -3.25286467 7.50364148 -6 7 C-5.01 5.68 -4.02 4.36 -3 3 C-2.67 3.33 -2.34 3.66 -2 4 C-1.34 2.68 -0.68 1.36 0 0 Z " fill="#092B60" transform="translate(654,559)" />
<path d="M0 0 C0.99 0.33 1.98 0.66 3 1 C2.25556641 1.72703125 2.25556641 1.72703125 1.49609375 2.46875 C-2.66275062 6.57235356 -6.61223546 10.7544468 -10.359375 15.23828125 C-12.09262501 17.09946162 -13.92644427 18.5349878 -16 20 C-14.62818803 16.97532189 -13.03464311 14.71113791 -10.8125 12.25 C-10.19890625 11.56421875 -9.5853125 10.8784375 -8.953125 10.171875 C-8.30859375 9.45515625 -7.6640625 8.7384375 -7 8 C-5.68533687 6.5018955 -4.37273607 5.00197793 -3.0625 3.5 C-2.04166667 2.33333333 -1.02083333 1.16666667 0 0 Z " fill="#0D56A9" transform="translate(676,371)" />
<path d="M0 0 C0.66 0.33 1.32 0.66 2 1 C-3 7.66666667 -8 14.33333333 -13 21 C-13.99 20.67 -14.98 20.34 -16 20 C-15.43152344 19.31035156 -14.86304688 18.62070312 -14.27734375 17.91015625 C-9.42735906 12.00758723 -4.6528819 6.05921919 0 0 Z " fill="#0C479C" transform="translate(591,478)" />
<path d="M0 0 C2.43550632 0.40414515 3.80979797 0.83845855 5.7109375 2.453125 C6.26007813 3.04609375 6.80921875 3.6390625 7.375 4.25 C9.60351618 6.59858709 11.81225784 8.70999944 14.375 10.6875 C17 13 17 13 17.6640625 15.14453125 C17.77492188 15.75683594 17.88578125 16.36914062 18 17 C13.83096591 13.46538414 9.70924912 9.88239972 5.625 6.25 C4.77164062 5.49203125 3.91828125 4.7340625 3.0390625 3.953125 C1 2 1 2 0 0 Z " fill="#081C45" transform="translate(451,467)" />
<path d="M0 0 C0.66 0.33 1.32 0.66 2 1 C-3.94 6.94 -9.88 12.88 -16 19 C-16.33 18.01 -16.66 17.02 -17 16 C-12.35344118 11.24222036 -7.61171109 6.68207665 -2.56640625 2.34765625 C-1.68751602 1.59150381 -0.81982149 0.81982149 0 0 Z " fill="#0E5EB5" transform="translate(699,349)" />
<path d="M0 0 C0.99 0.33 1.98 0.66 3 1 C1.9588208 1.89639984 0.91702339 2.79208163 -0.125 3.6875 C-0.76050781 4.2340625 -1.39601563 4.780625 -2.05078125 5.34375 C-3.78542659 6.81767711 -5.54371752 8.25500456 -7.3125 9.6875 C-10.12772961 11.90028127 -10.12772961 11.90028127 -12 15 C-12.66 14.67 -13.32 14.34 -14 14 C-10.61158454 7.83924461 -5.55903934 4.17988836 0 0 Z " fill="#08214E" transform="translate(794,346)" />
<path d="M0 0 C-0.99 1.485 -0.99 1.485 -2 3 C-2.66 3 -3.32 3 -4 3 C-4 2.34 -4 1.68 -4 1 C-4.55107422 1.73669922 -4.55107422 1.73669922 -5.11328125 2.48828125 C-7 4 -7 4 -9.91796875 4.29296875 C-10.99691406 4.25816406 -12.07585937 4.22335937 -13.1875 4.1875 C-14.27417969 4.16042969 -15.36085938 4.13335938 -16.48046875 4.10546875 C-17.31191406 4.07066406 -18.14335937 4.03585937 -19 4 C-19.66 3.01 -20.32 2.02 -21 1 C-13.97252688 0.33411422 -7.05985273 -0.11766421 0 0 Z " fill="#0E44A2" transform="translate(309,648)" />
<path d="M0 0 C0.33 0.66 0.66 1.32 1 2 C-0.39215709 4.04425682 -1.78858367 6.08537555 -3.1875 8.125 C-3.57486328 8.69476562 -3.96222656 9.26453125 -4.36132812 9.8515625 C-7.04656375 13.75735977 -9.91822713 17.39821217 -13 21 C-13.66 20.67 -14.32 20.34 -15 20 C-10 13.33333333 -5 6.66666667 0 0 Z " fill="#0E3C8B" transform="translate(617,553)" />
<path d="M0 0 C3.60571107 0.59283087 5.54429438 2.02741777 8.25 4.4375 C8.95640625 5.05496094 9.6628125 5.67242187 10.390625 6.30859375 C10.92171875 6.86675781 11.4528125 7.42492187 12 8 C12 8.66 12 9.32 12 10 C12.639375 10.2475 13.27875 10.495 13.9375 10.75 C14.9584375 11.36875 14.9584375 11.36875 16 12 C16.62890625 14.078125 16.62890625 14.078125 17 16 C12.80838948 12.44624326 8.66663011 8.84210234 4.5625 5.1875 C3.69753906 4.41792969 2.83257812 3.64835937 1.94140625 2.85546875 C1.30074219 2.24316406 0.66007812 1.63085938 0 1 C0 0.67 0 0.34 0 0 Z " fill="#091C45" transform="translate(328,352)" />
<path d="M0 0 C-4.86628419 2.62030687 -9.4185702 4.3283194 -15 4 C-15.66 3.01 -16.32 2.02 -17 1 C-5.47835991 -1.48063781 -5.47835991 -1.48063781 0 0 Z " fill="#0E4098" transform="translate(372,639)" />
<path d="M0 0 C2.87670505 0.37351296 4.04394672 1.03891989 6.25390625 2.99609375 C7.39666016 4.20458984 7.39666016 4.20458984 8.5625 5.4375 C10.99836547 7.99659643 13.04978421 10.03318947 16 12 C15.67 12.99 15.34 13.98 15 15 C12.87143092 13.06629992 10.7470979 11.12827941 8.625 9.1875 C8.02171875 8.64029297 7.4184375 8.09308594 6.796875 7.52929688 C6.21679688 6.99755859 5.63671875 6.46582031 5.0390625 5.91796875 C4.50490723 5.43094482 3.97075195 4.9439209 3.42041016 4.44213867 C2 3 2 3 0 0 Z " fill="#091B43" transform="translate(359,381)" />
<path d="M0 0 C3.3 0.33 6.6 0.66 10 1 C7.41588269 2.72274487 5.45097344 3.68895522 2.5625 4.6875 C1.80066406 4.95949219 1.03882813 5.23148437 0.25390625 5.51171875 C-2.21829721 6.04729142 -3.62983284 5.80445309 -6 5 C-6 4.34 -6 3.68 -6 3 C-4.02 2.34 -2.04 1.68 0 1 C0 0.67 0 0.34 0 0 Z " fill="#0F79D4" transform="translate(814,297)" />
<path d="M0 0 C-1.32258472 0.68774405 -2.65986503 1.34711373 -4 2 C-5.6396875 2.8353125 -5.6396875 2.8353125 -7.3125 3.6875 C-11.42930491 5.15280344 -13.78810579 4.94552727 -18 4 C-6.11698745 -2.17054393 -6.11698745 -2.17054393 0 0 Z " fill="#0D3D94" transform="translate(405,630)" />
<path d="M0 0 C0.66 0.33 1.32 0.66 2 1 C-3.69618593 7.8532237 -9.83067069 13.70645973 -17 19 C-15.60652624 15.84795019 -13.97514921 13.73828227 -11.5234375 11.328125 C-10.51796875 10.33232422 -10.51796875 10.33232422 -9.4921875 9.31640625 C-8.79351563 8.63449219 -8.09484375 7.95257812 -7.375 7.25 C-6.66859375 6.55261719 -5.9621875 5.85523438 -5.234375 5.13671875 C-3.49401297 3.41987512 -1.74915019 1.70788168 0 0 Z " fill="#0B3784" transform="translate(544,535)" />
<path d="M0 0 C0.66 0.33 1.32 0.66 2 1 C0.11356061 2.65778007 -1.78288717 4.30082802 -3.6875 5.9375 C-4.21794922 6.40607422 -4.74839844 6.87464844 -5.29492188 7.35742188 C-7.78010149 9.47668547 -9.72922361 10.92362717 -12.89453125 11.81640625 C-13.93673828 11.90728516 -13.93673828 11.90728516 -15 12 C-10.58990583 7.14889642 -5.41995647 3.651893 0 0 Z " fill="#091B43" transform="translate(492,556)" />
<path d="M0 0 C0.66 0 1.32 0 2 0 C0.46356148 3.68069887 -1.78150945 5.98775204 -4.625 8.75 C-5.85089844 9.94882812 -5.85089844 9.94882812 -7.1015625 11.171875 C-7.72804688 11.77515625 -8.35453125 12.3784375 -9 13 C-9.99 12.67 -10.98 12.34 -12 12 C-10.38113585 10.32737283 -8.7547271 8.66204463 -7.125 7 C-6.22007812 6.071875 -5.31515625 5.14375 -4.3828125 4.1875 C-3.20332031 3.1046875 -3.20332031 3.1046875 -2 2 C-1.34 2 -0.68 2 0 2 C0 1.34 0 0.68 0 0 Z " fill="#091D49" transform="translate(705,520)" />
<path d="M0 0 C6.40140935 0.46555704 11.26769829 2.14711836 17 5 C17 5.66 17 6.32 17 7 C11.14340094 5.33846988 5.5409866 3.52958084 0 1 C0 0.67 0 0.34 0 0 Z " fill="#0C1F49" transform="translate(260,306)" />
<path d="M0 0 C3.45201639 1.47721422 5.64961936 3.43794001 8.25 6.125 C8.95640625 6.84945313 9.6628125 7.57390625 10.390625 8.3203125 C11.18726563 9.15175781 11.18726563 9.15175781 12 10 C11.67 10.99 11.34 11.98 11 13 C9.16052663 11.21427748 7.32842259 9.42197551 5.5 7.625 C4.71302734 6.86316406 4.71302734 6.86316406 3.91015625 6.0859375 C2.56846819 4.76167396 1.28004185 3.38394135 0 2 C0 1.34 0 0.68 0 0 Z " fill="#0D1F45" transform="translate(331,464)" />
<path d="M0 0 C0.66 0 1.32 0 2 0 C0.51481201 4.04301175 -1.42877998 7.61146256 -3.625 11.3125 C-4.25664063 12.38113281 -4.88828125 13.44976562 -5.5390625 14.55078125 C-6.02117188 15.35902344 -6.50328125 16.16726563 -7 17 C-7.74609375 15.421875 -7.74609375 15.421875 -8 13 C-6.77369903 10.59958109 -5.54429316 8.47881286 -4.0625 6.25 C-3.67642578 5.64800781 -3.29035156 5.04601562 -2.89257812 4.42578125 C-1.93954585 2.94328661 -0.97121988 1.47064367 0 0 Z " fill="#091F4D" transform="translate(726,431)" />
<path d="M0 0 C5.09210286 3.56320845 9.22660027 7.04741286 13 12 C9.66864109 11.40300869 7.78724333 10.27987719 5.25 8.0625 C4.32960938 7.27552734 4.32960938 7.27552734 3.390625 6.47265625 C2.93171875 5.98667969 2.4728125 5.50070312 2 5 C2 4.34 2 3.68 2 3 C1.34 3 0.68 3 0 3 C0 2.01 0 1.02 0 0 Z " fill="#0B1C41" transform="translate(379,508)" />
<path d="M0 0 C1.32 0.33 2.64 0.66 4 1 C0.04 5.29 -3.92 9.58 -8 14 C-8 13.01 -8 12.02 -8 11 C-6.50390625 9.0625 -6.50390625 9.0625 -4.5625 7 C-2.2567258 4.54050752 -1.07990342 3.23971026 0 0 Z " fill="#0C55A9" transform="translate(739,352)" />
<path d="M0 0 C0.66 0.33 1.32 0.66 2 1 C0.23373926 5.28058486 -1.27665704 8.90132072 -5.25 11.5 C-6.1575 11.995 -7.065 12.49 -8 13 C-6.53181332 9.89257577 -4.79975 7.09528261 -2.875 4.25 C-2.06675781 3.05117188 -2.06675781 3.05117188 -1.2421875 1.828125 C-0.62730469 0.92320312 -0.62730469 0.92320312 0 0 Z " fill="#10244D" transform="translate(648,566)" />
<path d="M0 0 C0 3 0 3 -1.6796875 5.6640625 C-2.40414062 6.64117187 -3.12859375 7.61828125 -3.875 8.625 C-4.59429688 9.60726563 -5.31359375 10.58953125 -6.0546875 11.6015625 C-8 14 -8 14 -10 15 C-8.65794923 11.19639883 -6.95995677 8.38858921 -4.4375 5.25 C-3.81746094 4.47140625 -3.19742188 3.6928125 -2.55859375 2.890625 C-1 1 -1 1 0 0 Z " fill="#0C4B9F" transform="translate(619,441)" />
<path d="M0 0 C0 0.66 0 1.32 0 2 C-5.02125926 2.77916092 -8.97703996 3.13016601 -14 2 C-9.53202599 -0.57767731 -4.97760384 -1.72301671 0 0 Z " fill="#2360A1" transform="translate(832,296)" />
<path d="M0 0 C0 3 0 3 -1.6796875 5.6640625 C-2.40414062 6.64117187 -3.12859375 7.61828125 -3.875 8.625 C-4.59429688 9.60726563 -5.31359375 10.58953125 -6.0546875 11.6015625 C-8 14 -8 14 -10 15 C-8.59601721 10.89889238 -6.62912962 8.01910841 -3.875 4.6875 C-3.15054688 3.80449219 -2.42609375 2.92148437 -1.6796875 2.01171875 C-1.12539063 1.34785156 -0.57109375 0.68398438 0 0 Z " fill="#0E4699" transform="translate(607,457)" />
<path d="M0 0 C-1.33333333 0.66666667 -2.66666667 1.33333333 -4 2 C-4.5775 2.391875 -5.155 2.78375 -5.75 3.1875 C-9.29789788 4.46868535 -12.31002088 3.61499652 -16 3 C-14 1 -14 1 -11.375 0.375 C-7.53542007 -0.05161999 -3.8614063 -0.06657597 0 0 Z " fill="#0B3483" transform="translate(358,641)" />
<path d="M0 0 C3.66060821 0.58536753 5.54535164 2.083239 8.25 4.5625 C8.95640625 5.20316406 9.6628125 5.84382813 10.390625 6.50390625 C10.92171875 6.99761719 11.4528125 7.49132812 12 8 C11.67 8.99 11.34 9.98 11 11 C8.95880212 9.38405168 6.95927063 7.7143618 5 6 C5 5.34 5 4.68 5 4 C4.360625 3.71125 3.72125 3.4225 3.0625 3.125 C1 2 1 2 0 0 Z " fill="#091940" transform="translate(378,399)" />
<path d="M0 0 C0.66 0.33 1.32 0.66 2 1 C-2.455 6.94 -2.455 6.94 -7 13 C-7.33 12.01 -7.66 11.02 -8 10 C-5.36 6.7 -2.72 3.4 0 0 Z " fill="#081E4A" transform="translate(757,385)" />
<path d="M0 0 C0.66 0.33 1.32 0.66 2 1 C2 6.28 2 11.56 2 17 C1.67 17 1.34 17 1 17 C0.67 12.38 0.34 7.76 0 3 C-0.66 3.66 -1.32 4.32 -2 5 C-2.99 4.67 -3.98 4.34 -5 4 C-3.35 2.68 -1.7 1.36 0 0 Z " fill="#021D4E" transform="translate(743,483)" />
<path d="M0 0 C3.39192363 0.59283621 5.2107757 1.76743189 7.75 4.0625 C8.67039062 4.88427734 8.67039062 4.88427734 9.609375 5.72265625 C10.29773438 6.35494141 10.29773438 6.35494141 11 7 C10.67 7.99 10.34 8.98 10 10 C8.33037631 8.52417192 6.6643694 7.04425109 5 5.5625 C4.071875 4.73878906 3.14375 3.91507812 2.1875 3.06640625 C1.465625 2.38449219 0.74375 1.70257813 0 1 C0 0.67 0 0.34 0 0 Z " fill="#091B43" transform="translate(425,443)" />
<path d="M0 0 C1.07894531 0.03480469 2.15789062 0.06960938 3.26953125 0.10546875 C4.35621094 0.13253906 5.44289063 0.15960937 6.5625 0.1875 C7.80966797 0.23970703 7.80966797 0.23970703 9.08203125 0.29296875 C9.08203125 0.95296875 9.08203125 1.61296875 9.08203125 2.29296875 C4.03200903 3.32887074 -0.79213264 3.39548547 -5.91796875 3.29296875 C-4.03601989 0.77710028 -3.19181421 0.32046327 0 0 Z " fill="#1046A1" transform="translate(366.91796875,657.70703125)" />
<path d="M0 0 C3.39192363 0.59283621 5.2107757 1.76743189 7.75 4.0625 C8.67039062 4.88427734 8.67039062 4.88427734 9.609375 5.72265625 C10.29773438 6.35494141 10.29773438 6.35494141 11 7 C10.67 7.99 10.34 8.98 10 10 C8.33037631 8.52417192 6.6643694 7.04425109 5 5.5625 C4.071875 4.73878906 3.14375 3.91507812 2.1875 3.06640625 C1.465625 2.38449219 0.74375 1.70257813 0 1 C0 0.67 0 0.34 0 0 Z " fill="#081A43" transform="translate(316,341)" />
<path d="M0 0 C-0.33 0.99 -0.66 1.98 -1 3 C-5.40914783 4.10228696 -9.48382401 4.07654536 -14 4 C-11.17991324 2.11994216 -9.65676336 1.54324907 -6.4375 0.875 C-5.65246094 0.70742188 -4.86742187 0.53984375 -4.05859375 0.3671875 C-2 0 -2 0 0 0 Z " fill="#081739" transform="translate(241,643)" />
<path d="M0 0 C0 3.41321235 -0.66867466 4.39472885 -2.5 7.1875 C-2.9640625 7.90292969 -3.428125 8.61835937 -3.90625 9.35546875 C-4.2671875 9.89816406 -4.628125 10.44085937 -5 11 C-5.61328125 9.19921875 -5.61328125 9.19921875 -6 7 C-2.82191781 1.4109589 -2.82191781 1.4109589 0 0 Z " fill="#091E49" transform="translate(664,542)" />
<path d="M0 0 C2.40298839 0.41268714 3.80621924 0.83955308 5.703125 2.41015625 C6.21359375 2.95542969 6.7240625 3.50070312 7.25 4.0625 C8.03117187 4.88427734 8.03117187 4.88427734 8.828125 5.72265625 C9.40820312 6.35494141 9.40820312 6.35494141 10 7 C9.67 7.66 9.34 8.32 9 9 C7.49704815 7.69088122 5.99770689 6.37761608 4.5 5.0625 C3.6646875 4.33160156 2.829375 3.60070312 1.96875 2.84765625 C1.3190625 2.23792969 0.669375 1.62820313 0 1 C0 0.67 0 0.34 0 0 Z " fill="#06173F" transform="translate(438,455)" />
<path d="M0 0 C0 3 0 3 -1.53125 5.26171875 C-2.1809375 6.06222656 -2.830625 6.86273438 -3.5 7.6875 C-4.47453125 8.89986328 -4.47453125 8.89986328 -5.46875 10.13671875 C-5.9740625 10.75160156 -6.479375 11.36648438 -7 12 C-7.33 11.34 -7.66 10.68 -8 10 C-6.85500893 8.52018126 -5.708983 7.04116318 -4.5625 5.5625 C-3.60537109 4.32693359 -3.60537109 4.32693359 -2.62890625 3.06640625 C-1 1 -1 1 0 0 Z " fill="#0D4EA3" transform="translate(639,415)" />
<path d="M0 0 C0.66 0.33 1.32 0.66 2 1 C-1.465 5.95 -1.465 5.95 -5 11 C-5.33 10.01 -5.66 9.02 -6 8 C-4.02 5.36 -2.04 2.72 0 0 Z " fill="#061C4A" transform="translate(747,399)" />
<path d="M0 0 C5.52677733 -0.19392201 9.75614911 0.2520497 15 2 C15 2.33 15 2.66 15 3 C9.47322267 3.19392201 5.24385089 2.7479503 0 1 C0 0.67 0 0.34 0 0 Z " fill="#0C214A" transform="translate(244,302)" />
<path d="M0 0 C0.33 0.99 0.66 1.98 1 3 C-1.31 5.97 -3.62 8.94 -6 12 C-6.33 11.01 -6.66 10.02 -7 9 C-4.69 6.03 -2.38 3.06 0 0 Z " fill="#0D52A7" transform="translate(724,372)" />
<path d="M0 0 C0.33 0.66 0.66 1.32 1 2 C-0.65 4.97 -2.3 7.94 -4 11 C-4.33 9.68 -4.66 8.36 -5 7 C-4.00390625 5.078125 -4.00390625 5.078125 -2.5625 3.25 C-2.08941406 2.63640625 -1.61632812 2.0228125 -1.12890625 1.390625 C-0.75636719 0.93171875 -0.38382813 0.4728125 0 0 Z " fill="#091B45" transform="translate(671,529)" />
<path d="M0 0 C0.66 0.33 1.32 0.66 2 1 C-0.64 3.97 -3.28 6.94 -6 10 C-6.33 9.34 -6.66 8.68 -7 8 C-4.69 5.36 -2.38 2.72 0 0 Z " fill="#0C4FA7" transform="translate(657,393)" />
<path d="M0 0 C2.40298839 0.41268714 3.80621924 0.83955308 5.703125 2.41015625 C6.21359375 2.95542969 6.7240625 3.50070312 7.25 4.0625 C8.03117187 4.88427734 8.03117187 4.88427734 8.828125 5.72265625 C9.40820312 6.35494141 9.40820312 6.35494141 10 7 C9.67 7.66 9.34 8.32 9 9 C7.49704815 7.69088122 5.99770689 6.37761608 4.5 5.0625 C3.6646875 4.33160156 2.829375 3.60070312 1.96875 2.84765625 C1.3190625 2.23792969 0.669375 1.62820313 0 1 C0 0.67 0 0.34 0 0 Z " fill="#06163C" transform="translate(348,371)" />
<path d="M0 0 C0 0.33 0 0.66 0 1 C-1.60226955 1.22245393 -3.20696767 1.42746669 -4.8125 1.625 C-5.70582031 1.74101563 -6.59914063 1.85703125 -7.51953125 1.9765625 C-10 2 -10 2 -13 0 C-8.37078475 -1.0161692 -4.65537393 -0.83796731 0 0 Z " fill="#0E3E94" transform="translate(476,653)" />
<path d="M0 0 C0.33 0.66 0.66 1.32 1 2 C-1.57784846 4.64752004 -3.91648098 6.94432065 -7 9 C-7 8.01 -7 7.02 -7 6 C-5.46875 4.39453125 -5.46875 4.39453125 -3.5 2.8125 C-2.8503125 2.28269531 -2.200625 1.75289062 -1.53125 1.20703125 C-1.0259375 0.80871094 -0.520625 0.41039062 0 0 Z " fill="#0D3B8F" transform="translate(577,600)" />
<path d="M0 0 C0 0.66 0 1.32 0 2 C-2.75 4.0625 -2.75 4.0625 -6 6 C-8.203125 5.62109375 -8.203125 5.62109375 -10 5 C-8.71186658 4.16121545 -7.41936744 3.32913217 -6.125 2.5 C-5.40570313 2.0359375 -4.68640625 1.571875 -3.9453125 1.09375 C-2 0 -2 0 0 0 Z " fill="#0C3A89" transform="translate(481,591)" />
<path d="M0 0 C0.33 0.99 0.66 1.98 1 3 C-1.97 5.475 -1.97 5.475 -5 8 C-5.99 7.67 -6.98 7.34 -8 7 C-5.36 4.69 -2.72 2.38 0 0 Z " fill="#0B1D45" transform="translate(668,554)" />
<path d="M0 0 C2.97 1.98 2.97 1.98 6 4 C6 4.66 6 5.32 6 6 C6.99 6.33 7.98 6.66 9 7 C8.34 7.66 7.68 8.32 7 9 C5.82460004 8.07347299 4.65989423 7.13336613 3.5 6.1875 C2.52546875 5.40439453 2.52546875 5.40439453 1.53125 4.60546875 C1.0259375 4.07566406 0.520625 3.54585937 0 3 C0 2.01 0 1.02 0 0 Z " fill="#091A3D" transform="translate(402,529)" />
<path d="M0 0 C4.37859255 0.50522222 6.81651224 3.17827222 10 6 C9.01 6.33 8.02 6.66 7 7 C5.83040013 6.02433888 4.66438823 5.044375 3.5 4.0625 C2.8503125 3.51722656 2.200625 2.97195313 1.53125 2.41015625 C1.0259375 1.94480469 0.520625 1.47945313 0 1 C0 0.67 0 0.34 0 0 Z " fill="#05173E" transform="translate(279,417)" />
<path d="M0 0 C0 3.57575896 -1.08840607 5.05295935 -3 8 C-4.32 7.67 -5.64 7.34 -7 7 C-4.69 4.69 -2.38 2.38 0 0 Z " fill="#0C2E60" transform="translate(781,357)" />
<path d="M0 0 C0.66 0 1.32 0 2 0 C1.67 1.32 1.34 2.64 1 4 C-1.31 4.33 -3.62 4.66 -6 5 C-5.195625 4.360625 -4.39125 3.72125 -3.5625 3.0625 C-1.7249496 1.59396498 -1.7249496 1.59396498 0 0 Z " fill="#0966C2" transform="translate(732,325)" />
<path d="M0 0 C3.95820859 0.56545837 6.6659053 1.80902348 10 4 C9.67 4.99 9.34 5.98 9 7 C6.03 5.02 3.06 3.04 0 1 C0 0.67 0 0.34 0 0 Z " fill="#0A1D45" transform="translate(286,318)" />
<path d="M0 0 C1.31611677 0.95336021 2.62778961 1.91285774 3.9375 2.875 C4.66839844 3.40867187 5.39929688 3.94234375 6.15234375 4.4921875 C8 6 8 6 9 8 C7.3125 7.8125 7.3125 7.8125 5 7 C2.25 4.5625 2.25 4.5625 0 2 C0 1.34 0 0.68 0 0 Z " fill="#09173B" transform="translate(367,497)" />
<path d="M0 0 C1.31611677 0.95336021 2.62778961 1.91285774 3.9375 2.875 C4.66839844 3.40867187 5.39929688 3.94234375 6.15234375 4.4921875 C8 6 8 6 9 8 C7.3125 7.8125 7.3125 7.8125 5 7 C2.25 4.5625 2.25 4.5625 0 2 C0 1.34 0 0.68 0 0 Z " fill="#081537" transform="translate(296,431)" />
<path d="M0 0 C0.99 0.33 1.98 0.66 3 1 C-1.4921875 4.90625 -1.4921875 4.90625 -3 6 C-3.66 6 -4.32 6 -5 6 C-3.63016497 2.83884224 -3.0109362 2.0072908 0 0 Z " fill="#081E4D" transform="translate(803,339)" />
<path d="M0 0 C0.66 0.33 1.32 0.66 2 1 C0.35 3.64 -1.3 6.28 -3 9 C-3.33 8.01 -3.66 7.02 -4 6 C-2.0625 2.8125 -2.0625 2.8125 0 0 Z " fill="#081A42" transform="translate(655,555)" />
<path d="M0 0 C5.75 3.625 5.75 3.625 8 7 C5.158832 6.59411886 3.9670446 5.97162174 1.75 4.0625 C1.1725 3.381875 0.595 2.70125 0 2 C0 1.34 0 0.68 0 0 Z " fill="#09163A" transform="translate(355,486)" />
<path d="M0 0 C0.66 0 1.32 0 2 0 C0.90931332 3.77545388 0.0916909 6.47043472 -3 9 C-2.5020163 5.26512223 -2.12508244 3.18762365 0 0 Z " fill="#0A2050" transform="translate(703,471)" />
<path d="M0 0 C0.33 0.99 0.66 1.98 1 3 C-0.66180738 6.40670513 -1.80334098 7.86889399 -5 10 C-3.66511872 6.40608886 -2.03977277 3.24509304 0 0 Z " fill="#022D6B" transform="translate(709,465)" />
<path d="M0 0 C0.66 0.99 1.32 1.98 2 3 C0.35 4.32 -1.3 5.64 -3 7 C-2.625 4.0625 -2.625 4.0625 -2 1 C-1.34 0.67 -0.68 0.34 0 0 Z " fill="#0F66BE" transform="translate(747,344)" />
<path d="M0 0 C2.97 0.33 5.94 0.66 9 1 C8.67 1.66 8.34 2.32 8 3 C6.02 3 4.04 3 2 3 C1.34 2.01 0.68 1.02 0 0 Z " fill="#1048A2" transform="translate(336,643)" />
<path d="M0 0 C0.99 0.33 1.98 0.66 3 1 C1.09276551 2.90723449 -0.77997606 4.47373354 -3 6 C-3.66 6 -4.32 6 -5 6 C-5 5.34 -5 4.68 -5 4 C-3.37373596 2.61767557 -1.7074998 1.28062485 0 0 Z " fill="#0D429B" transform="translate(538,627)" />
<path d="M0 0 C2.46800047 1.15173355 4.04783565 2.04783565 6 4 C5.67 4.99 5.34 5.98 5 7 C3.29115995 5.37660195 1.62553283 3.70680947 0 2 C0 1.34 0 0.68 0 0 Z " fill="#0D1F45" transform="translate(305,440)" />
<path d="M0 0 C0.33 0 0.66 0 1 0 C1 1.65 1 3.3 1 5 C0.67 5 0.34 5 0 5 C0 3.35 0 1.7 0 0 Z " fill="#193565" transform="translate(740,574)" />
<path d="M0 0 C0.33 0 0.66 0 1 0 C1 1.65 1 3.3 1 5 C0.67 5 0.34 5 0 5 C0 3.35 0 1.7 0 0 Z " fill="#183665" transform="translate(740,558)" />
<path d="M0 0 C1 4 1 4 1 4 Z " fill="#183565" transform="translate(740,566)" />
<path d="M0 0 C1 4 1 4 1 4 Z " fill="#163567" transform="translate(740,532)" />
<path d="M0 0 C4 1 4 1 4 1 Z " fill="#1C345D" transform="translate(201,296)" />
<path d="" fill="#1B3664" transform="translate(0,0)" />
<path d="" fill="#16396B" transform="translate(0,0)" />
<path d="" fill="#153569" transform="translate(0,0)" />
<path d="M0 0 C2 1 2 1 2 1 Z " fill="#184FA2" transform="translate(388,663)" />
<path d="M0 0 C2 1 2 1 2 1 Z " fill="#223963" transform="translate(742,655)" />
<path d="M0 0 C2 1 2 1 2 1 Z " fill="#23365E" transform="translate(198,655)" />
<path d="" fill="#203760" transform="translate(0,0)" />
<path d="" fill="#1D3763" transform="translate(0,0)" />
<path d="" fill="#1D3763" transform="translate(0,0)" />
<path d="" fill="#1E3863" transform="translate(0,0)" />
<path d="" fill="#1C3763" transform="translate(0,0)" />
<path d="" fill="#1B3764" transform="translate(0,0)" />
<path d="" fill="#1A3565" transform="translate(0,0)" />
<path d="" fill="#183564" transform="translate(0,0)" />
<path d="" fill="#193664" transform="translate(0,0)" />
<path d="" fill="#1A3564" transform="translate(0,0)" />
<path d="" fill="#183664" transform="translate(0,0)" />
<path d="" fill="#173667" transform="translate(0,0)" />
<path d="" fill="#163565" transform="translate(0,0)" />
<path d="" fill="#183467" transform="translate(0,0)" />
<path d="" fill="#163567" transform="translate(0,0)" />
<path d="" fill="#153566" transform="translate(0,0)" />
<path d="" fill="#173565" transform="translate(0,0)" />
<path d="" fill="#153569" transform="translate(0,0)" />
<path d="" fill="#1A335B" transform="translate(0,0)" />
<path d="M0 0 C2 1 2 1 2 1 Z " fill="#153564" transform="translate(299,438)" />
<path d="M0 0 C2 1 2 1 2 1 Z " fill="#1475CD" transform="translate(669,376)" />
<path d="M0 0 C2 1 2 1 2 1 Z " fill="#1A3463" transform="translate(512,296)" />
<path d="M0 0 C2 1 2 1 2 1 Z " fill="#25395C" transform="translate(198,296)" />
<path d="" fill="#383838" transform="translate(0,0)" />
<path d="" fill="#1B51A0" transform="translate(0,0)" />
<path d="" fill="#1D4E9F" transform="translate(0,0)" />
<path d="" fill="#1B50A3" transform="translate(0,0)" />
<path d="" fill="#244986" transform="translate(0,0)" />
<path d="" fill="#223A64" transform="translate(0,0)" />
<path d="" fill="#1F4990" transform="translate(0,0)" />
<path d="" fill="#1C509D" transform="translate(0,0)" />
<path d="" fill="#184F9F" transform="translate(0,0)" />
<path d="" fill="#1853A6" transform="translate(0,0)" />
<path d="" fill="#1A3763" transform="translate(0,0)" />
<path d="" fill="#1B53A1" transform="translate(0,0)" />
<path d="" fill="#1552A5" transform="translate(0,0)" />
<path d="" fill="#1950A2" transform="translate(0,0)" />
<path d="" fill="#1A54A8" transform="translate(0,0)" />
<path d="" fill="#1B3764" transform="translate(0,0)" />
<path d="" fill="#1755A9" transform="translate(0,0)" />
<path d="" fill="#1D335B" transform="translate(0,0)" />
<path d="" fill="#1A3563" transform="translate(0,0)" />
<path d="" fill="#1B3764" transform="translate(0,0)" />
<path d="" fill="#134F9F" transform="translate(0,0)" />
<path d="" fill="#1A3564" transform="translate(0,0)" />
<path d="" fill="#1B3665" transform="translate(0,0)" />
<path d="" fill="#23487F" transform="translate(0,0)" />
<path d="" fill="#1F4178" transform="translate(0,0)" />
<path d="" fill="#143F7D" transform="translate(0,0)" />
<path d="" fill="#173E74" transform="translate(0,0)" />
<path d="" fill="#184688" transform="translate(0,0)" />
<path d="" fill="#163D7A" transform="translate(0,0)" />
<path d="" fill="#1B3566" transform="translate(0,0)" />
<path d="" fill="#1F4275" transform="translate(0,0)" />
<path d="" fill="#1D3F75" transform="translate(0,0)" />
<path d="" fill="#1B3F74" transform="translate(0,0)" />
<path d="" fill="#183C6F" transform="translate(0,0)" />
<path d="" fill="#1F4174" transform="translate(0,0)" />
<path d="" fill="#1B4282" transform="translate(0,0)" />
<path d="" fill="#155CB2" transform="translate(0,0)" />
<path d="" fill="#194483" transform="translate(0,0)" />
<path d="" fill="#183765" transform="translate(0,0)" />
<path d="" fill="#173569" transform="translate(0,0)" />
<path d="" fill="#174485" transform="translate(0,0)" />
<path d="" fill="#183769" transform="translate(0,0)" />
<path d="" fill="#173564" transform="translate(0,0)" />
<path d="" fill="#15386C" transform="translate(0,0)" />
<path d="" fill="#13407B" transform="translate(0,0)" />
<path d="" fill="#163666" transform="translate(0,0)" />
<path d="" fill="#163566" transform="translate(0,0)" />
<path d="" fill="#163565" transform="translate(0,0)" />
<path d="" fill="#164689" transform="translate(0,0)" />
<path d="" fill="#153668" transform="translate(0,0)" />
<path d="" fill="#163765" transform="translate(0,0)" />
<path d="" fill="#16396D" transform="translate(0,0)" />
<path d="" fill="#14376A" transform="translate(0,0)" />
<path d="" fill="#123264" transform="translate(0,0)" />
<path d="" fill="#154789" transform="translate(0,0)" />
<path d="" fill="#134484" transform="translate(0,0)" />
<path d="" fill="#163568" transform="translate(0,0)" />
<path d="" fill="#1566BE" transform="translate(0,0)" />
<path d="" fill="#173564" transform="translate(0,0)" />
<path d="" fill="#1A335E" transform="translate(0,0)" />
<path d="" fill="#153263" transform="translate(0,0)" />
<path d="" fill="#183564" transform="translate(0,0)" />
<path d="" fill="#153463" transform="translate(0,0)" />
<path d="" fill="#163364" transform="translate(0,0)" />
<path d="" fill="#133264" transform="translate(0,0)" />
<path d="" fill="#133365" transform="translate(0,0)" />
<path d="" fill="#143868" transform="translate(0,0)" />
<path d="" fill="#1166C0" transform="translate(0,0)" />
<path d="" fill="#163161" transform="translate(0,0)" />
<path d="" fill="#173564" transform="translate(0,0)" />
<path d="" fill="#164A8F" transform="translate(0,0)" />
<path d="" fill="#153467" transform="translate(0,0)" />
<path d="" fill="#133566" transform="translate(0,0)" />
<path d="" fill="#193664" transform="translate(0,0)" />
<path d="" fill="#134584" transform="translate(0,0)" />
<path d="" fill="#136AC0" transform="translate(0,0)" />
<path d="" fill="#1B335D" transform="translate(0,0)" />
<path d="" fill="#153466" transform="translate(0,0)" />
<path d="" fill="#1672CA" transform="translate(0,0)" />
<path d="" fill="#173769" transform="translate(0,0)" />
<path d="" fill="#143362" transform="translate(0,0)" />
<path d="" fill="#1069C1" transform="translate(0,0)" />
<path d="" fill="#1A3259" transform="translate(0,0)" />
<path d="" fill="#164682" transform="translate(0,0)" />
<path d="" fill="#124D8F" transform="translate(0,0)" />
<path d="" fill="#1675CB" transform="translate(0,0)" />
<path d="" fill="#1A3F79" transform="translate(0,0)" />
<path d="" fill="#1674CA" transform="translate(0,0)" />
<path d="" fill="#136FC8" transform="translate(0,0)" />
<path d="" fill="#1779D0" transform="translate(0,0)" />
<path d="" fill="#1677CE" transform="translate(0,0)" />
<path d="" fill="#144B8E" transform="translate(0,0)" />
<path d="" fill="#1C5999" transform="translate(0,0)" />
<path d="" fill="#1B5696" transform="translate(0,0)" />
<path d="" fill="#255892" transform="translate(0,0)" />
<path d="" fill="#1770C4" transform="translate(0,0)" />
<path d="" fill="#193B69" transform="translate(0,0)" />
<path d="" fill="#1878CB" transform="translate(0,0)" />
<path d="" fill="#1A3969" transform="translate(0,0)" />
<path d="" fill="#1D7ACA" transform="translate(0,0)" />
<path d="" fill="#1A6DC3" transform="translate(0,0)" />
<path d="" fill="#1D78C8" transform="translate(0,0)" />
<path d="" fill="#1E3B69" transform="translate(0,0)" />
<path d="" fill="#2375C4" transform="translate(0,0)" />
<path d="" fill="#2575BF" transform="translate(0,0)" />
<path d="" fill="#1E3967" transform="translate(0,0)" />
<path d="" fill="#193664" transform="translate(0,0)" />
<path d="" fill="#1C3665" transform="translate(0,0)" />
<path d="" fill="#1B3665" transform="translate(0,0)" />
<path d="" fill="#1A3866" transform="translate(0,0)" />
<path d="" fill="#193260" transform="translate(0,0)" />
<path d="" fill="#183362" transform="translate(0,0)" />
<path d="" fill="#1C3660" transform="translate(0,0)" />
<path d="" fill="#1E365E" transform="translate(0,0)" />
<path d="" fill="#404244" transform="translate(0,0)" />
</svg>
